<svg width="200" height="64" viewBox="0 0 200 64" fill="none" xmlns="http://www.w3.org/2000/svg">
    <g clip-path="url(#pm7tmp8vna)" fill-rule="evenodd" clip-rule="evenodd">
        <path d="M130.462 29.846h14.773v-5.911h-15.761a.981.981 0 0 0-.982.983v2.955a2.008 2.008 0 0 0 1.97 1.973zM130.462 40.692h14.773V34.78h-15.761a.981.981 0 0 0-.982.983v2.955a2.008 2.008 0 0 0 1.97 1.973z" fill="#001DA3"/>
        <path d="M121.601 43.694a1.968 1.968 0 0 1-2.33 1.947 1.959 1.959 0 0 1-1.009-.53l-13.357-12.998a.967.967 0 0 0-.668-.281.983.983 0 0 0-.981.99V45.62h-5.243V21.2a2.009 2.009 0 0 1 1.242-1.777 2 2 0 0 1 2.131.393l13.463 13.6a.981.981 0 0 0 1.683-.701l-.134-13.695h8.682a3.44 3.44 0 0 0-2.439 1.013 3.457 3.457 0 0 0-1.007 2.444l-.033 21.217zm-40.737-18.91h-3.232a.982.982 0 0 0-.982.99v13.801a.983.983 0 0 0 .982.983h2.09c1.207.015 2.41-.154 3.566-.502a8.01 8.01 0 0 0 2.765-1.464 6.385 6.385 0 0 0 1.79-2.434 8.557 8.557 0 0 0 .62-3.343 8.662 8.662 0 0 0-.834-4.06 6.93 6.93 0 0 0-2.07-2.433 7.783 7.783 0 0 0-2.518-1.19 9 9 0 0 0-2.197-.348h.02zm-18.325-5.43a3.947 3.947 0 0 1 3.94 3.939v21.344a.984.984 0 0 1-.982.983h-4.941a.982.982 0 0 1-.989-.983V34.4a1.974 1.974 0 0 0-1.298-1.85 1.968 1.968 0 0 0-2.181.586L45.93 45.272a.986.986 0 0 1-.754.348h-4.188a.968.968 0 0 1-.627-.227.982.982 0 0 1-.134-1.385l19.267-23.23a3.935 3.935 0 0 1 3.025-1.424h.02zm78.362-.334a3.935 3.935 0 0 1 3.425 2.006l2.211 3.919a1.968 1.968 0 0 0 3.399.06l2.504-4.1a3.94 3.94 0 0 1 3.339-1.886h3.954l-7.232 11.736a2.978 2.978 0 0 0 0 3.143l7.459 11.742h-4.267a3.916 3.916 0 0 1-3.413-2.006l-2.464-4.293a1.948 1.948 0 0 0-.668-.702 2 2 0 0 0-2.705.669l-2.637 4.4a3.942 3.942 0 0 1-3.373 1.905h-4.074l7.473-11.748a2.943 2.943 0 0 0 .034-3.123L136.72 19.02h4.181zm-61.56 0c2.337-.06 4.661.346 6.839 1.197a12.141 12.141 0 0 1 4.54 3.183 12.71 12.71 0 0 1 2.512 4.447c.528 1.598.798 3.27.801 4.954.03 1.84-.335 3.663-1.068 5.35a12.276 12.276 0 0 1-2.912 4.052 12.776 12.776 0 0 1-4.274 2.568 14.882 14.882 0 0 1-5.136.882h-7.292a2.002 2.002 0 0 1-2.004-1.966V20.973A2.007 2.007 0 0 1 73.351 19l5.99.02z" fill="#FF801D"/>
    </g>
    <defs>
        <clipPath id="pm7tmp8vna">
            <path fill="#fff" transform="translate(40 19)" d="M0 0h120v26.667H0z"/>
        </clipPath>
    </defs>
</svg>
